<svg width="10" height="12" viewBox="0 0 10 12" fill="none" xmlns="http://www.w3.org/2000/svg">
<path d="M2.31395 2.95472C2.28072 2.92356 2.25428 2.8862 2.23622 2.84486C2.21817 2.80353 2.20886 2.75907 2.20886 2.71415C2.20886 2.66923 2.21817 2.62478 2.23622 2.58344C2.25428 2.54211 2.28072 2.50474 2.31395 2.47358L4.75581 0.101887C4.78731 0.069691 4.82519 0.0440588 4.86717 0.0265448C4.90914 0.00903085 4.95433 0 5 0C5.04567 0 5.09086 0.00903085 5.13283 0.0265448C5.17481 0.0440588 5.21269 0.069691 5.24419 0.101887L7.68605 2.47358C7.71928 2.50474 7.74572 2.54211 7.76378 2.58344C7.78183 2.62478 7.79114 2.66923 7.79114 2.71415C7.79114 2.75907 7.78183 2.80353 7.76378 2.84486C7.74572 2.8862 7.71928 2.92356 7.68605 2.95472C7.65455 2.98691 7.61667 3.01254 7.57469 3.03006C7.53272 3.04757 7.48753 3.0566 7.44186 3.0566C7.39619 3.0566 7.351 3.04757 7.30903 3.03006C7.26705 3.01254 7.22917 2.98691 7.19767 2.95472L5.34884 1.16038V6.67925C5.34884 6.76932 5.31209 6.8557 5.24667 6.91939C5.18125 6.98309 5.09252 7.01887 5 7.01887C4.90748 7.01887 4.81875 6.98309 4.75333 6.91939C4.68792 6.8557 4.65116 6.76932 4.65116 6.67925V1.16038L2.80233 2.95472C2.77083 2.98691 2.73295 3.01254 2.69097 3.03006C2.649 3.04757 2.60381 3.0566 2.55814 3.0566C2.51247 3.0566 2.46728 3.04757 2.42531 3.03006C2.38333 3.01254 2.34545 2.98691 2.31395 2.95472ZM9.18605 4.5283H7.7907C7.69818 4.5283 7.60945 4.56408 7.54403 4.62778C7.47861 4.69147 7.44186 4.77785 7.44186 4.86792C7.44186 4.958 7.47861 5.04438 7.54403 5.10807C7.60945 5.17177 7.69818 5.20755 7.7907 5.20755H9.18605C9.21689 5.20755 9.24646 5.21947 9.26827 5.24071C9.29008 5.26194 9.30233 5.29073 9.30233 5.32076V11.2075C9.30233 11.2376 9.29008 11.2664 9.26827 11.2876C9.24646 11.3088 9.21689 11.3208 9.18605 11.3208H0.813954C0.783114 11.3208 0.753538 11.3088 0.731732 11.2876C0.709925 11.2664 0.697674 11.2376 0.697674 11.2075V5.32076C0.697674 5.29073 0.709925 5.26194 0.731732 5.24071C0.753538 5.21947 0.783114 5.20755 0.813954 5.20755H2.2093C2.30182 5.20755 2.39055 5.17177 2.45597 5.10807C2.52139 5.04438 2.55814 4.958 2.55814 4.86792C2.55814 4.77785 2.52139 4.69147 2.45597 4.62778C2.39055 4.56408 2.30182 4.5283 2.2093 4.5283H0.813954C0.59808 4.5283 0.391047 4.61179 0.238402 4.76041C0.0857556 4.90902 0 5.11058 0 5.32076V11.2075C0 11.4177 0.0857556 11.6193 0.238402 11.7679C0.391047 11.9165 0.59808 12 0.813954 12H9.18605C9.40192 12 9.60895 11.9165 9.7616 11.7679C9.91424 11.6193 10 11.4177 10 11.2075V5.32076C10 5.11058 9.91424 4.90902 9.7616 4.76041C9.60895 4.61179 9.40192 4.5283 9.18605 4.5283Z" fill="#3E2013"/>
</svg>
