<svg width="983" height="542" viewBox="0 0 983 542" fill="none" xmlns="http://www.w3.org/2000/svg">
<path d="M22.8 376.2C20.9333 348.733 20 311.667 20 265C20 218.067 20.6667 187.667 22 173.8C23.3333 165.267 29.2 159.667 39.6 157C50 154.067 63.7333 152.6 80.8 152.6C105.867 152.6 126.933 158.067 144 169C161.333 179.667 170 195.533 170 216.6C170 233.933 167.6 248.467 162.8 260.2C158 271.667 152 280.2 144.8 285.8C133.067 294.867 115.733 299.4 92.8 299.4C82.9333 299.4 70 298.067 54 295.4C55.3333 348.733 55.8667 382.333 55.6 396.2C55.3333 410.067 50.6667 417 41.6 417C35.7333 417 32 415.933 30.4 413.8C28.8 411.667 27.7333 410.2 27.2 409.4C26.6667 408.333 26.1333 406.867 25.6 405C25.0667 403.133 24.6667 401.667 24.4 400.6C24.1333 399.267 23.8667 397.4 23.6 395C23.6 392.6 23.4667 390.733 23.2 389.4C22.9333 385.4 22.8 381 22.8 376.2ZM136.8 217.8C136.8 206.867 130.933 198.333 119.2 192.2C107.467 185.8 94.9333 182.6 81.6 182.6C68.2667 182.6 58.9333 183.8 53.6 186.2C52.5333 201.933 52 216.467 52 229.8C52 242.867 52.5333 254.733 53.6 265.4C60.8 266.2 65.7333 266.867 68.4 267.4C75.3333 268.2 81.2 268.6 86 268.6C91.0667 268.6 94.4 268.6 96 268.6C97.8667 268.333 101.2 267.933 106 267.4C111.067 266.6 114.667 265.4 116.8 263.8C118.933 262.2 121.6 260.067 124.8 257.4C128 254.733 130.267 251.667 131.6 248.2C135.067 238.6 136.8 228.467 136.8 217.8Z" fill="#F2A013"/>
<path d="M180.16 337.44C180.16 322.253 184.127 308.427 192.06 295.96C200.22 283.493 210.533 274.2 223 268.08C235.467 261.733 247.593 258.56 259.38 258.56C271.167 258.56 280.573 260.033 287.6 262.98C294.853 265.7 298.48 269.44 298.48 274.2C298.48 278.733 297.12 283.38 294.4 288.14C291.907 292.673 288.507 294.94 284.2 294.94C282.613 294.94 278.193 293.693 270.94 291.2C263.913 288.48 259.38 287.12 257.34 287.12C244.193 287.12 232.973 291.993 223.68 301.74C214.387 311.26 209.74 323.953 209.74 339.82C209.74 355.687 212.233 367.587 217.22 375.52C222.433 383.227 231.273 387.08 243.74 387.08C248.727 387.08 257.227 384.247 269.24 378.58C281.48 372.687 289.073 369.74 292.02 369.74C294.967 369.74 297.347 370.647 299.16 372.46C300.973 374.273 301.88 376.54 301.88 379.26C301.88 384.7 298.367 390.48 291.34 396.6C284.54 402.493 276.04 407.48 265.84 411.56C255.64 415.413 246.46 417.34 238.3 417.34C220.167 417.34 205.887 410.2 195.46 395.92C185.26 381.64 180.16 362.147 180.16 337.44ZM376.916 258.56C393.236 258.56 406.61 266.38 417.036 282.02C427.69 297.66 433.016 316.473 433.016 338.46C433.016 360.22 427.576 378.807 416.696 394.22C406.043 409.633 391.763 417.34 373.856 417.34C356.176 417.34 341.896 409.52 331.016 393.88C320.136 378.013 314.696 360.447 314.696 341.18C314.696 316.473 319.683 296.753 329.656 282.02C340.31 266.38 356.063 258.56 376.916 258.56ZM372.836 286.44C363.316 286.44 355.496 291.427 349.376 301.4C343.256 311.373 340.196 321.913 340.196 333.02C340.196 350.247 343.596 363.393 350.396 372.46C357.196 381.527 364.903 386.06 373.516 386.06C388.93 386.06 398.79 379.373 403.096 366C404.91 359.653 405.816 351.72 405.816 342.2C405.816 305.027 394.823 286.44 372.836 286.44ZM535.125 257.88L534.785 192.26C534.785 180.02 538.639 173.9 546.345 173.9C554.279 173.9 558.699 177.3 559.605 184.1C560.059 187.047 560.625 204.84 561.305 237.48C561.985 270.12 563.005 300.72 564.365 329.28C565.952 357.84 566.745 384.473 566.745 409.18C566.745 415.98 561.645 419.38 551.445 419.38C544.645 419.38 541.245 414.62 541.245 405.1C531.499 412.807 519.939 416.66 506.565 416.66C489.565 416.66 475.739 410.313 465.085 397.62C454.659 384.927 449.445 369.287 449.445 350.7C449.445 332.113 453.185 314.773 460.665 298.68C468.372 282.36 480.272 270.687 496.365 263.66C506.339 259.353 515.972 257.2 525.265 257.2C528.665 257.2 531.952 257.427 535.125 257.88ZM536.825 304.46C535.239 299.473 533.312 295.733 531.045 293.24C528.779 290.52 526.285 288.933 523.565 288.48C521.072 287.8 518.012 287.46 514.385 287.46C510.759 287.46 506.339 288.82 501.125 291.54C495.912 294.26 491.492 298.68 487.865 304.8C480.612 317.04 476.985 329.96 476.985 343.56C476.985 356.933 479.592 367.927 484.805 376.54C490.245 384.927 497.839 389.12 507.585 389.12C517.559 389.12 525.379 384.247 531.045 374.5C536.712 364.753 539.545 352.287 539.545 337.1C539.545 320.1 538.639 309.22 536.825 304.46ZM635.306 259.58C647.319 259.58 658.766 263.093 669.646 270.12C680.526 277.147 685.966 285.873 685.966 296.3C685.966 306.5 681.546 316.473 672.706 326.22C663.866 335.74 652.079 341.52 637.346 343.56C630.999 344.467 621.479 344.92 608.786 344.92C611.279 364.187 616.152 376.88 623.406 383C625.672 385.493 628.732 386.74 632.586 386.74C646.639 386.74 658.426 382.32 667.946 373.48C677.466 364.413 684.266 359.88 688.346 359.88C690.159 359.88 692.879 361.58 696.506 364.98C700.132 368.38 701.946 371.553 701.946 374.5C701.946 380.393 694.806 388.893 680.526 400C674.179 405.213 666.472 409.633 657.406 413.26C648.566 416.66 640.292 418.36 632.586 418.36C612.866 418.36 598.359 405.667 589.066 380.28C583.172 364.64 580.226 347.413 580.226 328.6C580.226 309.787 584.646 293.58 593.486 279.98C602.326 266.38 616.266 259.58 635.306 259.58ZM637.006 283.04C628.392 283.04 621.026 287.913 614.906 297.66C612.639 301.06 610.486 308.767 608.446 320.78C640.179 320.78 656.046 312.96 656.046 297.32C656.046 287.8 649.699 283.04 637.006 283.04Z" fill="#5B3B02"/>
<path fill-rule="evenodd" clip-rule="evenodd" d="M756.543 142.456L810.863 196.677L829.512 178.689C839.769 168.796 849.542 160.701 851.23 160.701C855.334 160.701 867.488 173.018 867.488 177.181C867.488 178.998 846.679 201.396 821.246 226.955C773.852 274.587 768.138 278.46 758.877 269.211C750.998 261.336 753.991 253.803 772.146 235.825L789.635 218.508L734.536 163.412C701.291 130.169 679.437 106.281 679.437 103.184C679.437 95.6609 687.305 88.2344 695.276 88.2344C700.727 88.2344 713.928 99.9177 756.543 142.456ZM902.871 183.931C905.574 186.373 907.785 190.84 907.785 193.854C907.785 197.402 887.698 219.48 850.781 256.511C791.013 316.46 785.704 320.166 774.996 309.471C765.814 300.294 769.731 294.891 827.78 236.665C887.381 176.886 891.714 173.842 902.871 183.931ZM936.798 206.865C938.571 208.637 940.022 213.763 940.022 218.256C940.022 225.339 931.853 234.569 878.733 287.502C836.245 329.845 815.642 348.579 811.572 348.579C804.587 348.579 794.954 339.708 794.954 333.277C794.954 330.765 823.027 300.571 857.338 266.178C921.211 202.152 927.433 197.509 936.798 206.865ZM959.287 240.294C970.672 250.59 967.174 255.646 907.137 315.676C848.779 374.028 843.466 377.874 834.098 368.518C823.546 357.972 827.245 352.69 887.034 292.956C921.244 258.776 946.236 235.852 949.282 235.852C952.084 235.852 956.584 237.852 959.287 240.294ZM978.092 283.238C987.247 291.515 983.827 297.597 951.789 330.003L920.572 361.58L921.566 386.559C922.471 409.303 922.109 411.627 917.51 412.529C909.947 414.014 907.567 407.934 909.292 391.522C910.369 381.25 910.022 377.946 908.147 380.657C903.089 387.974 901.934 410.065 905.348 434.167C908.139 453.865 908.123 459.007 905.257 462.456C900.08 468.686 892.389 467.585 887.341 459.89C883.523 454.069 883.325 450.966 885.936 437.971C891.481 410.387 890.186 400.551 879.577 389.635C874.406 384.315 870.174 377.445 870.174 374.363C870.174 370.702 885.74 353.195 915.143 323.781C962.121 276.785 967.281 273.463 978.092 283.238Z" fill="#F8AE01"/>
<path d="M679.065 107.255C673.234 101.216 673.359 91.6052 679.347 85.7209C685.372 79.8001 695.056 79.8846 700.977 85.9096L809.919 196.769L788.457 218.397L728.292 158.232L679.065 107.255Z" fill="#5B3B02"/>
</svg>
