<svg width="407" height="255" viewBox="0 0 407 255" fill="none" xmlns="http://www.w3.org/2000/svg">
<g clip-path="url(#clip0_465_217)">
<rect width="407" height="255" rx="5" fill="url(#paint0_linear_465_217)"/>
<g filter="url(#filter0_d_465_217)">
<rect x="21" y="18" width="365" height="215" rx="9" fill="#282C34"/>
</g>
<rect x="31" y="28" width="11" height="11" rx="5.5" fill="#F5434A"/>
<rect x="48" y="28" width="11" height="11" rx="5.5" fill="#FAC41C"/>
<rect x="65" y="28" width="11" height="11" rx="5.5" fill="#31D599"/>
<path d="M218.137 29.0234V25.7734H218.863V30H218.172L218.137 29.0234ZM218.273 28.1328L218.574 28.125C218.574 28.4062 218.544 28.6667 218.484 28.9062C218.427 29.1432 218.333 29.349 218.203 29.5234C218.073 29.6979 217.902 29.8346 217.691 29.9336C217.48 30.0299 217.224 30.0781 216.922 30.0781C216.716 30.0781 216.527 30.0482 216.355 29.9883C216.186 29.9284 216.04 29.8359 215.918 29.7109C215.796 29.5859 215.701 29.4232 215.633 29.2227C215.568 29.0221 215.535 28.7812 215.535 28.5V25.7734H216.258V28.5078C216.258 28.6979 216.279 28.8555 216.32 28.9805C216.365 29.1029 216.423 29.2005 216.496 29.2734C216.572 29.3438 216.655 29.3932 216.746 29.4219C216.84 29.4505 216.936 29.4648 217.035 29.4648C217.342 29.4648 217.586 29.4062 217.766 29.2891C217.945 29.1693 218.074 29.0091 218.152 28.8086C218.233 28.6055 218.273 28.3802 218.273 28.1328ZM220.688 26.6758V30H219.965V25.7734H220.648L220.688 26.6758ZM220.516 27.7266L220.215 27.7148C220.217 27.4258 220.26 27.1589 220.344 26.9141C220.427 26.6667 220.544 26.4518 220.695 26.2695C220.846 26.0872 221.026 25.9466 221.234 25.8477C221.445 25.7461 221.678 25.6953 221.934 25.6953C222.142 25.6953 222.329 25.724 222.496 25.7812C222.663 25.8359 222.805 25.9245 222.922 26.0469C223.042 26.1693 223.133 26.3281 223.195 26.5234C223.258 26.7161 223.289 26.9518 223.289 27.2305V30H222.562V27.2227C222.562 27.0013 222.53 26.8242 222.465 26.6914C222.4 26.556 222.305 26.4583 222.18 26.3984C222.055 26.3359 221.901 26.3047 221.719 26.3047C221.539 26.3047 221.375 26.3424 221.227 26.418C221.081 26.4935 220.954 26.5977 220.848 26.7305C220.743 26.8633 220.661 27.0156 220.602 27.1875C220.544 27.3568 220.516 27.5365 220.516 27.7266ZM226.156 25.7734V26.3281H223.871V25.7734H226.156ZM224.645 24.7461H225.367V28.9531C225.367 29.0964 225.389 29.2044 225.434 29.2773C225.478 29.3503 225.535 29.3984 225.605 29.4219C225.676 29.4453 225.751 29.457 225.832 29.457C225.892 29.457 225.954 29.4518 226.02 29.4414C226.087 29.4284 226.138 29.418 226.172 29.4102L226.176 30C226.118 30.0182 226.043 30.0352 225.949 30.0508C225.858 30.069 225.747 30.0781 225.617 30.0781C225.44 30.0781 225.277 30.043 225.129 29.9727C224.98 29.9023 224.862 29.7852 224.773 29.6211C224.688 29.4544 224.645 29.2305 224.645 28.9492V24.7461ZM227.789 25.7734V30H227.062V25.7734H227.789ZM227.008 24.6523C227.008 24.5352 227.043 24.4362 227.113 24.3555C227.186 24.2747 227.293 24.2344 227.434 24.2344C227.572 24.2344 227.677 24.2747 227.75 24.3555C227.826 24.4362 227.863 24.5352 227.863 24.6523C227.863 24.7643 227.826 24.8607 227.75 24.9414C227.677 25.0195 227.572 25.0586 227.434 25.0586C227.293 25.0586 227.186 25.0195 227.113 24.9414C227.043 24.8607 227.008 24.7643 227.008 24.6523ZM230.719 25.7734V26.3281H228.434V25.7734H230.719ZM229.207 24.7461H229.93V28.9531C229.93 29.0964 229.952 29.2044 229.996 29.2773C230.04 29.3503 230.098 29.3984 230.168 29.4219C230.238 29.4453 230.314 29.457 230.395 29.457C230.454 29.457 230.517 29.4518 230.582 29.4414C230.65 29.4284 230.701 29.418 230.734 29.4102L230.738 30C230.681 30.0182 230.605 30.0352 230.512 30.0508C230.421 30.069 230.31 30.0781 230.18 30.0781C230.003 30.0781 229.84 30.043 229.691 29.9727C229.543 29.9023 229.424 29.7852 229.336 29.6211C229.25 29.4544 229.207 29.2305 229.207 28.9492V24.7461ZM232.352 24V30H231.625V24H232.352ZM235.266 30.0781C234.971 30.0781 234.704 30.0286 234.465 29.9297C234.228 29.8281 234.023 29.6862 233.852 29.5039C233.682 29.3216 233.552 29.1055 233.461 28.8555C233.37 28.6055 233.324 28.332 233.324 28.0352V27.8711C233.324 27.5273 233.375 27.2214 233.477 26.9531C233.578 26.6823 233.716 26.4531 233.891 26.2656C234.065 26.0781 234.263 25.9362 234.484 25.8398C234.706 25.7435 234.935 25.6953 235.172 25.6953C235.474 25.6953 235.734 25.7474 235.953 25.8516C236.174 25.9557 236.355 26.1016 236.496 26.2891C236.637 26.474 236.741 26.6927 236.809 26.9453C236.876 27.1953 236.91 27.4688 236.91 27.7656V28.0898H233.754V27.5H236.188V27.4453C236.177 27.2578 236.138 27.0755 236.07 26.8984C236.005 26.7214 235.901 26.5755 235.758 26.4609C235.615 26.3464 235.419 26.2891 235.172 26.2891C235.008 26.2891 234.857 26.3242 234.719 26.3945C234.581 26.4622 234.462 26.5638 234.363 26.6992C234.264 26.8346 234.188 27 234.133 27.1953C234.078 27.3906 234.051 27.6159 234.051 27.8711V28.0352C234.051 28.2357 234.078 28.4245 234.133 28.6016C234.19 28.776 234.272 28.9297 234.379 29.0625C234.488 29.1953 234.62 29.2995 234.773 29.375C234.93 29.4505 235.107 29.4883 235.305 29.4883C235.56 29.4883 235.776 29.4362 235.953 29.332C236.13 29.2279 236.285 29.0885 236.418 28.9141L236.855 29.2617C236.764 29.3997 236.648 29.5312 236.508 29.6562C236.367 29.7812 236.194 29.8828 235.988 29.9609C235.785 30.0391 235.544 30.0781 235.266 30.0781ZM239.258 27.2852V27.8789H237.352V27.2852H239.258ZM242.262 24.2812V30H241.539V25.1836L240.082 25.7148V25.0625L242.148 24.2812H242.262Z" fill="#768099"/>
<path d="M48.5811 84.8574C48.0713 84.8574 47.6436 84.7578 47.2979 84.5586C46.958 84.3535 46.6855 84.0869 46.4805 83.7588C46.2695 83.4365 46.1172 83.0732 46.0234 82.6689C45.9355 82.2588 45.8916 81.8457 45.8916 81.4297V81.0605C45.8916 80.6504 45.9355 80.2432 46.0234 79.8389C46.1172 79.4346 46.2695 79.0684 46.4805 78.7402C46.6914 78.418 46.9668 78.1572 47.3066 77.958C47.6523 77.7529 48.0771 77.6504 48.5811 77.6504C48.9092 77.6504 49.2139 77.7061 49.4951 77.8174C49.7822 77.9287 50.0283 78.0811 50.2334 78.2744C50.4385 78.4678 50.5996 78.6934 50.7168 78.9512C50.8398 79.2031 50.9043 79.4727 50.9102 79.7598H52.4482C52.4482 79.2793 52.3516 78.8281 52.1582 78.4062C51.9648 77.9844 51.6982 77.6182 51.3584 77.3076C51.0127 77.0029 50.6025 76.7627 50.1279 76.5869C49.6592 76.4053 49.1436 76.3145 48.5811 76.3145C47.8604 76.3145 47.2305 76.4434 46.6914 76.7012C46.1523 76.959 45.7041 77.3047 45.3467 77.7383C44.9834 78.1777 44.7109 78.6846 44.5293 79.2588C44.3477 79.833 44.2568 80.4336 44.2568 81.0605V81.4297C44.2568 82.0625 44.3477 82.666 44.5293 83.2402C44.7109 83.8086 44.9834 84.3096 45.3467 84.7432C45.7041 85.1826 46.1523 85.5312 46.6914 85.7891C47.2305 86.0469 47.8604 86.1758 48.5811 86.1758C49.085 86.1758 49.5684 86.0908 50.0312 85.9209C50.4941 85.7451 50.9043 85.5107 51.2617 85.2178C51.6191 84.9307 51.9033 84.5967 52.1143 84.2158C52.3311 83.8291 52.4424 83.4248 52.4482 83.0029H50.9102C50.9043 83.2666 50.834 83.5127 50.6992 83.7412C50.5703 83.9639 50.3975 84.1572 50.1807 84.3213C49.9639 84.4912 49.7148 84.623 49.4336 84.7168C49.1582 84.8105 48.874 84.8574 48.5811 84.8574ZM54.8828 81.1572V81.3506C54.8828 82.0361 54.9824 82.6719 55.1816 83.2578C55.3809 83.8438 55.668 84.3535 56.043 84.7871C56.4121 85.2207 56.8633 85.5605 57.3965 85.8066C57.9355 86.0527 58.542 86.1758 59.2158 86.1758C59.8838 86.1758 60.4844 86.0527 61.0176 85.8066C61.5508 85.5605 62.0049 85.2207 62.3799 84.7871C62.749 84.3535 63.0332 83.8438 63.2324 83.2578C63.4316 82.6719 63.5312 82.0361 63.5312 81.3506V81.1572C63.5312 80.4717 63.4316 79.8359 63.2324 79.25C63.0332 78.6582 62.749 78.1455 62.3799 77.7119C62.0049 77.2783 61.5479 76.9385 61.0088 76.6924C60.4756 76.4404 59.8721 76.3145 59.1982 76.3145C58.5303 76.3145 57.9297 76.4404 57.3965 76.6924C56.8633 76.9385 56.4121 77.2783 56.043 77.7119C55.668 78.1455 55.3809 78.6582 55.1816 79.25C54.9824 79.8359 54.8828 80.4717 54.8828 81.1572ZM56.5088 81.3506V81.1572C56.5088 80.6943 56.5645 80.252 56.6758 79.8301C56.7871 79.4023 56.957 79.0273 57.1855 78.7051C57.4082 78.3828 57.6865 78.1279 58.0205 77.9404C58.3545 77.7471 58.7471 77.6504 59.1982 77.6504C59.6494 77.6504 60.042 77.7471 60.376 77.9404C60.7158 78.1279 61 78.3828 61.2285 78.7051C61.4512 79.0273 61.6182 79.4023 61.7295 79.8301C61.8467 80.252 61.9053 80.6943 61.9053 81.1572V81.3506C61.9053 81.8193 61.8496 82.2676 61.7383 82.6953C61.627 83.1172 61.46 83.4893 61.2373 83.8115C61.0088 84.1338 60.7246 84.3887 60.3848 84.5762C60.0508 84.7637 59.6611 84.8574 59.2158 84.8574C58.7646 84.8574 58.3691 84.7637 58.0293 84.5762C57.6895 84.3887 57.4082 84.1338 57.1855 83.8115C56.957 83.4893 56.7871 83.1172 56.6758 82.6953C56.5645 82.2676 56.5088 81.8193 56.5088 81.3506ZM66.1504 86H67.7764V79.1797C67.8877 78.9746 68.0166 78.7871 68.1631 78.6172C68.3154 78.4473 68.4795 78.2979 68.6553 78.1689C68.8721 78.0225 69.1094 77.9082 69.3672 77.8262C69.625 77.7383 69.9033 77.6943 70.2021 77.6943C70.5479 77.6943 70.8525 77.7354 71.1162 77.8174C71.3857 77.8994 71.6143 78.0312 71.8018 78.2129C71.9834 78.3945 72.1211 78.6318 72.2148 78.9248C72.3086 79.2178 72.3555 79.5752 72.3555 79.9971V86H73.9814V79.9619C73.9814 79.3291 73.9023 78.7842 73.7441 78.3271C73.5918 77.8643 73.3721 77.4834 73.085 77.1846C72.7979 76.8857 72.4492 76.666 72.0391 76.5254C71.6348 76.3848 71.1836 76.3145 70.6855 76.3145C70.3164 76.3203 69.9648 76.376 69.6309 76.4814C69.3027 76.5811 68.998 76.7246 68.7168 76.9121C68.5293 77.0352 68.3506 77.1816 68.1807 77.3516C68.0166 77.5156 67.8643 77.6973 67.7236 77.8965L67.6094 76.4902H66.1504V86ZM83.2803 83.4775C83.2803 83.6299 83.251 83.7734 83.1924 83.9082C83.1338 84.043 83.0488 84.166 82.9375 84.2773C82.7559 84.459 82.5039 84.6025 82.1816 84.708C81.8594 84.8076 81.4814 84.8574 81.0479 84.8574C80.7725 84.8574 80.4941 84.8281 80.2129 84.7695C79.9316 84.7109 79.6768 84.6113 79.4482 84.4707C79.2139 84.3301 79.0176 84.1455 78.8594 83.917C78.707 83.6885 78.6191 83.4072 78.5957 83.0732H76.9697C76.9697 83.4775 77.0605 83.8672 77.2422 84.2422C77.4297 84.6172 77.6992 84.9453 78.0508 85.2266C78.3965 85.5137 78.8213 85.7451 79.3252 85.9209C79.8291 86.0908 80.4033 86.1758 81.0479 86.1758C81.6104 86.1758 82.1289 86.1084 82.6035 85.9736C83.0781 85.8389 83.4854 85.6484 83.8252 85.4023C84.165 85.1562 84.4287 84.8604 84.6162 84.5146C84.8096 84.1689 84.9062 83.7852 84.9062 83.3633C84.9062 82.9707 84.8213 82.625 84.6514 82.3262C84.4873 82.0273 84.2471 81.7637 83.9307 81.5352C83.6143 81.3125 83.2246 81.1221 82.7617 80.9639C82.2988 80.7998 81.7744 80.6562 81.1885 80.5332C80.7432 80.4453 80.374 80.3545 80.0811 80.2607C79.7939 80.167 79.5654 80.0615 79.3955 79.9443C79.2197 79.8271 79.0967 79.6953 79.0264 79.5488C78.9561 79.4023 78.9209 79.2354 78.9209 79.0479C78.9209 78.8662 78.9648 78.6904 79.0527 78.5205C79.1406 78.3506 79.2725 78.2012 79.4482 78.0723C79.6182 77.9434 79.832 77.8408 80.0898 77.7646C80.3535 77.6885 80.6582 77.6504 81.0039 77.6504C81.3379 77.6504 81.6367 77.6973 81.9004 77.791C82.1699 77.8848 82.3984 78.0078 82.5859 78.1602C82.7734 78.3125 82.9199 78.4883 83.0254 78.6875C83.1309 78.8809 83.1836 79.0801 83.1836 79.2852H84.8096C84.8096 78.8691 84.7188 78.4824 84.5371 78.125C84.3613 77.7617 84.1094 77.4453 83.7812 77.1758C83.4531 76.9062 83.0547 76.6953 82.5859 76.543C82.1172 76.3906 81.5898 76.3145 81.0039 76.3145C80.459 76.3145 79.958 76.3877 79.501 76.5342C79.0498 76.6807 78.6602 76.8799 78.332 77.1318C78.0039 77.3838 77.749 77.6797 77.5674 78.0195C77.3857 78.3535 77.2949 78.7139 77.2949 79.1006C77.2949 79.4932 77.3828 79.8389 77.5586 80.1377C77.7344 80.4307 77.9834 80.6855 78.3057 80.9023C78.6221 81.125 79.0029 81.3154 79.4482 81.4736C79.8994 81.6318 80.3975 81.7666 80.9424 81.8779C81.3877 81.9658 81.7598 82.0654 82.0586 82.1768C82.3574 82.2822 82.5977 82.3994 82.7793 82.5283C82.9609 82.6572 83.0898 82.8008 83.166 82.959C83.2422 83.1113 83.2803 83.2842 83.2803 83.4775ZM91.6211 74.1875H89.9863V76.4902H87.4902V77.7471H89.9863V82.915C89.9863 83.501 90.0625 84.002 90.2148 84.418C90.373 84.8281 90.5869 85.1621 90.8564 85.4199C91.126 85.6836 91.4424 85.877 91.8057 86C92.1748 86.1172 92.5703 86.1758 92.9922 86.1758C93.2441 86.1758 93.4961 86.1641 93.748 86.1406C94.0059 86.1172 94.249 86.082 94.4775 86.0352C94.7061 85.9941 94.917 85.9443 95.1104 85.8857C95.3037 85.8213 95.4678 85.748 95.6025 85.666L95.374 84.5146C95.2744 84.5381 95.1455 84.5674 94.9873 84.6025C94.835 84.6318 94.6709 84.6611 94.4951 84.6904C94.3135 84.7197 94.1289 84.7461 93.9414 84.7695C93.7539 84.7871 93.5723 84.7959 93.3965 84.7959C93.1562 84.7959 92.9277 84.7666 92.7109 84.708C92.5 84.6494 92.3125 84.5469 92.1484 84.4004C91.9844 84.2598 91.8555 84.0693 91.7617 83.8291C91.668 83.5889 91.6211 83.2842 91.6211 82.915V77.7471H95.2422V76.4902H91.6211V74.1875ZM160.475 79.1445V77.7295H152.626V79.1445H160.475ZM160.475 82.792V81.3857H152.626V82.792H160.475ZM214.527 79.1445V77.7295H206.679V79.1445H214.527ZM214.527 82.792V81.3857H206.679V82.792H214.527ZM217.533 84.2686L225.294 80.9375V79.6543L217.533 76.332V78.0107L223.22 80.1201L223.747 80.2871L223.22 80.4365L217.533 82.5811V84.2686Z" fill="#56B6C2"/>
<path d="M106 142.277V140.555L100.621 138.48L100.155 138.322L100.621 138.173L106 136.063V134.341L98.5469 137.663V138.946L106 142.277ZM131.049 142.269L138.81 138.938V137.654L131.049 134.332V136.011L136.735 138.12L137.263 138.287L136.735 138.437L131.049 140.581V142.269ZM143.45 135.905V130.5H141.824V144H143.45V137.092C143.567 136.904 143.699 136.734 143.846 136.582C143.998 136.424 144.162 136.286 144.338 136.169C144.561 136.017 144.804 135.899 145.067 135.817C145.331 135.735 145.609 135.694 145.902 135.694C146.26 135.688 146.576 135.738 146.852 135.844C147.127 135.943 147.355 136.096 147.537 136.301C147.707 136.488 147.836 136.726 147.924 137.013C148.012 137.294 148.056 137.622 148.056 137.997V144H149.682V138.015C149.682 137.376 149.603 136.825 149.444 136.362C149.292 135.894 149.072 135.507 148.785 135.202C148.498 134.897 148.149 134.675 147.739 134.534C147.335 134.388 146.884 134.314 146.386 134.314C146.005 134.32 145.645 134.376 145.305 134.481C144.971 134.587 144.663 134.742 144.382 134.947C144.206 135.07 144.039 135.214 143.881 135.378C143.723 135.536 143.579 135.712 143.45 135.905ZM156.836 144.176C157.762 144.176 158.538 143.991 159.165 143.622C159.798 143.247 160.272 142.819 160.589 142.339L159.596 141.565C159.297 141.952 158.922 142.263 158.471 142.497C158.02 142.731 157.504 142.849 156.924 142.849C156.484 142.849 156.083 142.767 155.72 142.603C155.356 142.438 155.046 142.213 154.788 141.926C154.536 141.656 154.337 141.346 154.19 140.994C154.05 140.643 153.959 140.235 153.918 139.772V139.711H160.712V138.981C160.712 138.319 160.627 137.704 160.457 137.136C160.293 136.567 160.041 136.072 159.701 135.65C159.361 135.234 158.934 134.909 158.418 134.675C157.908 134.435 157.311 134.314 156.625 134.314C156.08 134.314 155.547 134.426 155.025 134.648C154.51 134.871 154.05 135.19 153.646 135.606C153.235 136.028 152.907 136.544 152.661 137.153C152.415 137.757 152.292 138.442 152.292 139.21V139.579C152.292 140.241 152.403 140.854 152.626 141.416C152.849 141.979 153.159 142.465 153.558 142.875C153.956 143.285 154.434 143.604 154.99 143.833C155.553 144.062 156.168 144.176 156.836 144.176ZM156.625 135.65C157.041 135.65 157.398 135.727 157.697 135.879C158.002 136.031 158.254 136.23 158.453 136.477C158.652 136.723 158.808 137.016 158.919 137.355C159.03 137.689 159.086 138.003 159.086 138.296V138.375H153.971C154.035 137.936 154.146 137.549 154.305 137.215C154.469 136.875 154.668 136.588 154.902 136.354C155.137 136.125 155.4 135.952 155.693 135.835C155.986 135.712 156.297 135.65 156.625 135.65ZM163.7 130.5V131.915H166.935V142.594H163.7V144H171.663V142.594H168.561V130.5H163.7ZM174.511 130.5V131.915H177.745V142.594H174.511V144H182.474V142.594H179.371V130.5H174.511ZM184.609 139.157V139.351C184.609 140.036 184.709 140.672 184.908 141.258C185.107 141.844 185.395 142.354 185.77 142.787C186.139 143.221 186.59 143.561 187.123 143.807C187.662 144.053 188.269 144.176 188.942 144.176C189.61 144.176 190.211 144.053 190.744 143.807C191.277 143.561 191.731 143.221 192.106 142.787C192.476 142.354 192.76 141.844 192.959 141.258C193.158 140.672 193.258 140.036 193.258 139.351V139.157C193.258 138.472 193.158 137.836 192.959 137.25C192.76 136.658 192.476 136.146 192.106 135.712C191.731 135.278 191.274 134.938 190.735 134.692C190.202 134.44 189.599 134.314 188.925 134.314C188.257 134.314 187.656 134.44 187.123 134.692C186.59 134.938 186.139 135.278 185.77 135.712C185.395 136.146 185.107 136.658 184.908 137.25C184.709 137.836 184.609 138.472 184.609 139.157ZM186.235 139.351V139.157C186.235 138.694 186.291 138.252 186.402 137.83C186.514 137.402 186.684 137.027 186.912 136.705C187.135 136.383 187.413 136.128 187.747 135.94C188.081 135.747 188.474 135.65 188.925 135.65C189.376 135.65 189.769 135.747 190.103 135.94C190.442 136.128 190.727 136.383 190.955 136.705C191.178 137.027 191.345 137.402 191.456 137.83C191.573 138.252 191.632 138.694 191.632 139.157V139.351C191.632 139.819 191.576 140.268 191.465 140.695C191.354 141.117 191.187 141.489 190.964 141.812C190.735 142.134 190.451 142.389 190.111 142.576C189.777 142.764 189.388 142.857 188.942 142.857C188.491 142.857 188.096 142.764 187.756 142.576C187.416 142.389 187.135 142.134 186.912 141.812C186.684 141.489 186.514 141.117 186.402 140.695C186.291 140.268 186.235 139.819 186.235 139.351ZM207.602 144H208.885L210.353 138.173L210.59 136.696L210.836 138.173L212.321 144H213.604L215.626 134.49H214.185L213.13 140.555L212.893 142.049L212.638 140.555L211.126 134.49H210.08L208.56 140.555L208.322 141.917L208.129 140.555L207.021 134.49H205.58L207.602 144ZM217.041 139.157V139.351C217.041 140.036 217.141 140.672 217.34 141.258C217.539 141.844 217.826 142.354 218.201 142.787C218.57 143.221 219.021 143.561 219.555 143.807C220.094 144.053 220.7 144.176 221.374 144.176C222.042 144.176 222.643 144.053 223.176 143.807C223.709 143.561 224.163 143.221 224.538 142.787C224.907 142.354 225.191 141.844 225.391 141.258C225.59 140.672 225.689 140.036 225.689 139.351V139.157C225.689 138.472 225.59 137.836 225.391 137.25C225.191 136.658 224.907 136.146 224.538 135.712C224.163 135.278 223.706 134.938 223.167 134.692C222.634 134.44 222.03 134.314 221.356 134.314C220.688 134.314 220.088 134.44 219.555 134.692C219.021 134.938 218.57 135.278 218.201 135.712C217.826 136.146 217.539 136.658 217.34 137.25C217.141 137.836 217.041 138.472 217.041 139.157ZM218.667 139.351V139.157C218.667 138.694 218.723 138.252 218.834 137.83C218.945 137.402 219.115 137.027 219.344 136.705C219.566 136.383 219.845 136.128 220.179 135.94C220.513 135.747 220.905 135.65 221.356 135.65C221.808 135.65 222.2 135.747 222.534 135.94C222.874 136.128 223.158 136.383 223.387 136.705C223.609 137.027 223.776 137.402 223.888 137.83C224.005 138.252 224.063 138.694 224.063 139.157V139.351C224.063 139.819 224.008 140.268 223.896 140.695C223.785 141.117 223.618 141.489 223.396 141.812C223.167 142.134 222.883 142.389 222.543 142.576C222.209 142.764 221.819 142.857 221.374 142.857C220.923 142.857 220.527 142.764 220.188 142.576C219.848 142.389 219.566 142.134 219.344 141.812C219.115 141.489 218.945 141.117 218.834 140.695C218.723 140.268 218.667 139.819 218.667 139.351ZM234.54 134.314C233.849 134.314 233.23 134.467 232.686 134.771C232.146 135.07 231.684 135.48 231.297 136.002L231.288 135.765L231.218 134.49H229.671V144H231.306V137.9C231.411 137.607 231.543 137.344 231.701 137.109C231.865 136.869 232.056 136.667 232.272 136.503C232.513 136.315 232.794 136.175 233.116 136.081C233.438 135.981 233.799 135.932 234.197 135.932C234.508 135.932 234.804 135.949 235.085 135.984C235.372 136.014 235.674 136.063 235.99 136.134L236.21 134.543C236.046 134.473 235.8 134.417 235.472 134.376C235.149 134.335 234.839 134.314 234.54 134.314ZM239.374 130.5V131.915H242.608V142.594H239.374V144H247.337V142.594H244.234V130.5H239.374ZM249.622 139.166V139.351C249.622 140.03 249.713 140.666 249.895 141.258C250.076 141.844 250.331 142.354 250.659 142.787C250.987 143.221 251.383 143.561 251.846 143.807C252.314 144.053 252.836 144.176 253.41 144.176C253.996 144.176 254.509 144.076 254.948 143.877C255.388 143.678 255.766 143.385 256.082 142.998L256.152 144H257.646V130.5H256.021V135.431C255.71 135.067 255.341 134.792 254.913 134.604C254.491 134.411 253.996 134.314 253.428 134.314C252.848 134.314 252.323 134.435 251.854 134.675C251.386 134.915 250.987 135.249 250.659 135.677C250.325 136.104 250.067 136.617 249.886 137.215C249.71 137.807 249.622 138.457 249.622 139.166ZM251.248 139.351V139.166C251.248 138.703 251.298 138.264 251.397 137.848C251.497 137.426 251.652 137.054 251.863 136.731C252.068 136.415 252.332 136.163 252.654 135.976C252.982 135.788 253.375 135.694 253.832 135.694C254.365 135.694 254.811 135.82 255.168 136.072C255.525 136.318 255.81 136.635 256.021 137.021V141.434C255.81 141.85 255.525 142.181 255.168 142.427C254.811 142.673 254.359 142.796 253.814 142.796C253.363 142.796 252.977 142.705 252.654 142.523C252.332 142.336 252.068 142.084 251.863 141.768C251.652 141.451 251.497 141.085 251.397 140.669C251.298 140.253 251.248 139.813 251.248 139.351ZM268.158 142.277V140.555L262.779 138.48L262.313 138.322L262.779 138.173L268.158 136.063V134.341L260.705 137.663V138.946L268.158 142.277ZM273.695 145.099L279.03 131.203H277.58L272.236 145.099H273.695ZM304.018 142.269L311.778 138.938V137.654L304.018 134.332V136.011L309.704 138.12L310.231 138.287L309.704 138.437L304.018 140.581V142.269Z" fill="#BBBBBB"/>
<path d="M115.501 82.6865L116.512 86H118.129L114.068 73.2031H112.706L108.575 86H110.201L111.229 82.6865H115.501ZM111.669 81.2715L113.383 75.7168L115.07 81.2715H111.669ZM120.194 89.6562H121.82V85.0859C121.938 85.2148 122.063 85.335 122.198 85.4463C122.333 85.5518 122.477 85.6484 122.629 85.7363C122.881 85.877 123.162 85.9854 123.473 86.0615C123.789 86.1377 124.129 86.1758 124.492 86.1758C125.09 86.1758 125.62 86.0527 126.083 85.8066C126.552 85.5605 126.944 85.2207 127.261 84.7871C127.577 84.3535 127.817 83.8438 127.981 83.2578C128.146 82.666 128.228 82.0303 128.228 81.3506V81.166C128.228 80.457 128.146 79.8066 127.981 79.2148C127.817 78.6172 127.577 78.1045 127.261 77.6768C126.944 77.249 126.552 76.915 126.083 76.6748C125.614 76.4346 125.075 76.3145 124.466 76.3145C124.12 76.3145 123.795 76.3525 123.49 76.4287C123.191 76.499 122.919 76.6045 122.673 76.7451C122.497 76.8389 122.333 76.9531 122.181 77.0879C122.028 77.2168 121.888 77.3633 121.759 77.5273L121.68 76.4902H120.194V89.6562ZM126.602 81.166V81.3506C126.602 81.8135 126.549 82.2559 126.443 82.6777C126.344 83.0996 126.188 83.4717 125.978 83.7939C125.767 84.1162 125.497 84.374 125.169 84.5674C124.841 84.7549 124.451 84.8486 124 84.8486C123.719 84.8486 123.461 84.8135 123.227 84.7432C122.998 84.6729 122.79 84.5762 122.603 84.4531C122.438 84.3477 122.292 84.2188 122.163 84.0664C122.034 83.9141 121.92 83.75 121.82 83.5742V78.9951C121.932 78.7959 122.061 78.6143 122.207 78.4502C122.354 78.2861 122.521 78.1484 122.708 78.0371C122.878 77.9258 123.068 77.8408 123.279 77.7822C123.496 77.7236 123.73 77.6943 123.982 77.6943C124.439 77.6943 124.832 77.7881 125.16 77.9756C125.488 78.1631 125.761 78.415 125.978 78.7314C126.188 79.0537 126.344 79.4258 126.443 79.8477C126.549 80.2637 126.602 80.7031 126.602 81.166ZM131.005 89.6562H132.631V85.0859C132.748 85.2148 132.874 85.335 133.009 85.4463C133.144 85.5518 133.287 85.6484 133.439 85.7363C133.691 85.877 133.973 85.9854 134.283 86.0615C134.6 86.1377 134.939 86.1758 135.303 86.1758C135.9 86.1758 136.431 86.0527 136.894 85.8066C137.362 85.5605 137.755 85.2207 138.071 84.7871C138.388 84.3535 138.628 83.8438 138.792 83.2578C138.956 82.666 139.038 82.0303 139.038 81.3506V81.166C139.038 80.457 138.956 79.8066 138.792 79.2148C138.628 78.6172 138.388 78.1045 138.071 77.6768C137.755 77.249 137.362 76.915 136.894 76.6748C136.425 76.4346 135.886 76.3145 135.276 76.3145C134.931 76.3145 134.605 76.3525 134.301 76.4287C134.002 76.499 133.729 76.6045 133.483 76.7451C133.308 76.8389 133.144 76.9531 132.991 77.0879C132.839 77.2168 132.698 77.3633 132.569 77.5273L132.49 76.4902H131.005V89.6562ZM137.412 81.166V81.3506C137.412 81.8135 137.359 82.2559 137.254 82.6777C137.154 83.0996 136.999 83.4717 136.788 83.7939C136.577 84.1162 136.308 84.374 135.979 84.5674C135.651 84.7549 135.262 84.8486 134.811 84.8486C134.529 84.8486 134.271 84.8135 134.037 84.7432C133.809 84.6729 133.601 84.5762 133.413 84.4531C133.249 84.3477 133.103 84.2188 132.974 84.0664C132.845 83.9141 132.73 83.75 132.631 83.5742V78.9951C132.742 78.7959 132.871 78.6143 133.018 78.4502C133.164 78.2861 133.331 78.1484 133.519 78.0371C133.688 77.9258 133.879 77.8408 134.09 77.7822C134.307 77.7236 134.541 77.6943 134.793 77.6943C135.25 77.6943 135.643 77.7881 135.971 77.9756C136.299 78.1631 136.571 78.415 136.788 78.7314C136.999 79.0537 137.154 79.4258 137.254 79.8477C137.359 80.2637 137.412 80.7031 137.412 81.166Z" fill="#73DC9B"/>
<path d="M175.864 80.8057V80.8936C175.864 81.7314 175.929 82.5195 176.058 83.2578C176.192 83.9961 176.371 84.6787 176.594 85.3057C176.811 85.9385 177.062 86.5127 177.35 87.0283C177.643 87.5498 177.95 88.0127 178.272 88.417C178.589 88.8271 178.908 89.1729 179.23 89.4541C179.559 89.7412 179.869 89.9668 180.162 90.1309L180.505 89.1377C180.265 88.9443 180.024 88.71 179.784 88.4346C179.55 88.165 179.321 87.8545 179.099 87.5029C178.882 87.1338 178.674 86.7148 178.475 86.2461C178.275 85.7832 178.1 85.2793 177.947 84.7344C177.807 84.1953 177.695 83.6064 177.613 82.9678C177.531 82.3291 177.49 81.6436 177.49 80.9111V80.7881C177.49 80.0264 177.534 79.3145 177.622 78.6523C177.71 77.9902 177.833 77.3838 177.991 76.833C178.155 76.2236 178.36 75.6641 178.606 75.1543C178.853 74.6387 179.11 74.1904 179.38 73.8096C179.562 73.5635 179.746 73.3408 179.934 73.1416C180.127 72.9424 180.317 72.7725 180.505 72.6318L180.162 71.5596C179.869 71.7236 179.562 71.9492 179.239 72.2363C178.917 72.5234 178.598 72.8691 178.281 73.2734C177.959 73.6777 177.651 74.1406 177.358 74.6621C177.071 75.1836 176.816 75.7578 176.594 76.3848C176.371 77.0176 176.192 77.7031 176.058 78.4414C175.929 79.1797 175.864 79.9678 175.864 80.8057ZM190.999 80.8936V80.8057C190.999 79.9092 190.929 79.1035 190.788 78.3887C190.653 77.668 190.48 77 190.27 76.3848C190.053 75.7461 189.801 75.1719 189.514 74.6621C189.227 74.1523 188.919 73.6895 188.591 73.2734C188.274 72.8691 187.952 72.5234 187.624 72.2363C187.296 71.9492 186.985 71.7236 186.692 71.5596L186.35 72.5527C186.543 72.7109 186.742 72.9043 186.947 73.1328C187.152 73.3555 187.352 73.6162 187.545 73.915C187.797 74.2959 188.043 74.7441 188.283 75.2598C188.523 75.7695 188.729 76.3467 188.898 76.9912C189.016 77.4424 189.121 77.9902 189.215 78.6348C189.314 79.2793 189.364 79.9971 189.364 80.7881V80.9111C189.364 81.6084 189.326 82.2646 189.25 82.8799C189.18 83.4893 189.077 84.0576 188.942 84.585C188.813 85.1533 188.646 85.6748 188.441 86.1494C188.242 86.6299 188.034 87.0605 187.817 87.4414C187.589 87.8164 187.349 88.1475 187.097 88.4346C186.845 88.7217 186.596 88.9561 186.35 89.1377L186.692 90.1309C186.985 89.9668 187.293 89.7412 187.615 89.4541C187.943 89.1729 188.269 88.8271 188.591 88.417C188.907 88.0127 189.209 87.5498 189.496 87.0283C189.789 86.5127 190.047 85.9385 190.27 85.3057C190.492 84.6787 190.668 83.9961 190.797 83.2578C190.932 82.5195 190.999 81.7314 190.999 80.8936ZM246.186 89.2168L246.37 88.2061C246.007 88.1943 245.705 88.0947 245.465 87.9072C245.23 87.7197 245.043 87.4795 244.902 87.1865C244.756 86.8994 244.653 86.5742 244.595 86.2109C244.536 85.8535 244.507 85.4932 244.507 85.1299V83.6445C244.501 82.9473 244.337 82.335 244.015 81.8076C243.692 81.2744 243.191 80.873 242.512 80.6035C243.191 80.3281 243.692 79.9268 244.015 79.3994C244.343 78.8662 244.507 78.248 244.507 77.5449V76.0508C244.507 75.6934 244.524 75.333 244.56 74.9697C244.595 74.6064 244.677 74.2783 244.806 73.9854C244.929 73.6982 245.113 73.4609 245.359 73.2734C245.611 73.0859 245.948 72.9863 246.37 72.9746L246.186 71.9639C245.594 71.9814 245.09 72.1104 244.674 72.3506C244.258 72.585 243.921 72.8896 243.663 73.2646C243.388 73.6572 243.186 74.1025 243.057 74.6006C242.934 75.0928 242.872 75.5762 242.872 76.0508V77.5449C242.872 78.3945 242.67 79.0098 242.266 79.3906C241.867 79.7656 241.255 79.9531 240.429 79.9531V81.2275C241.255 81.2334 241.867 81.4268 242.266 81.8076C242.67 82.1885 242.872 82.8008 242.872 83.6445V85.1299C242.872 85.5986 242.939 86.0703 243.074 86.5449C243.209 87.0254 243.408 87.459 243.672 87.8457C243.947 88.25 244.293 88.5752 244.709 88.8213C245.125 89.0674 245.617 89.1992 246.186 89.2168ZM45.8389 204.206L46.0234 205.217C46.5977 205.205 47.0928 205.073 47.5088 204.821C47.9248 204.569 48.2705 204.247 48.5459 203.854C48.8154 203.462 49.0146 203.025 49.1436 202.545C49.2725 202.07 49.3369 201.599 49.3369 201.13V199.645C49.3369 199.234 49.3838 198.88 49.4775 198.581C49.5713 198.282 49.7148 198.033 49.9082 197.834C50.1074 197.629 50.3623 197.479 50.6729 197.386C50.9893 197.286 51.3584 197.233 51.7803 197.228V195.953C51.2998 195.953 50.8867 195.892 50.541 195.769C50.2012 195.64 49.9346 195.438 49.7412 195.162C49.6064 194.969 49.5039 194.74 49.4336 194.477C49.3691 194.207 49.3369 193.896 49.3369 193.545V192.051C49.3369 191.559 49.2695 191.061 49.1348 190.557C49.0059 190.053 48.792 189.599 48.4932 189.194C48.2295 188.837 47.8926 188.547 47.4824 188.324C47.0781 188.102 46.5918 187.981 46.0234 187.964L45.8477 188.975C46.2695 188.986 46.6035 189.086 46.8496 189.273C47.0957 189.461 47.2832 189.698 47.4121 189.985C47.5352 190.278 47.6143 190.606 47.6494 190.97C47.6904 191.333 47.7109 191.693 47.7109 192.051V193.545C47.7109 194.002 47.7783 194.427 47.9131 194.819C48.0479 195.206 48.2559 195.546 48.5371 195.839C48.6836 195.997 48.8535 196.141 49.0469 196.27C49.2461 196.398 49.4629 196.51 49.6973 196.604C49.4688 196.697 49.2578 196.806 49.0645 196.929C48.877 197.052 48.707 197.189 48.5547 197.342C48.2676 197.629 48.0537 197.969 47.9131 198.361C47.7783 198.754 47.7109 199.182 47.7109 199.645V201.13C47.7109 201.493 47.6787 201.854 47.6143 202.211C47.5557 202.574 47.4561 202.899 47.3154 203.187C47.1689 203.479 46.9756 203.72 46.7354 203.907C46.4951 204.095 46.1963 204.194 45.8389 204.206Z" fill="#F5D301"/>
<path d="M72.3818 105.314C71.6904 105.314 71.0723 105.467 70.5273 105.771C69.9883 106.07 69.5254 106.48 69.1387 107.002L69.1299 106.765L69.0596 105.49H67.5127V115H69.1475V108.9C69.2529 108.607 69.3848 108.344 69.543 108.109C69.707 107.869 69.8975 107.667 70.1143 107.503C70.3545 107.315 70.6357 107.175 70.958 107.081C71.2803 106.981 71.6406 106.932 72.0391 106.932C72.3496 106.932 72.6455 106.949 72.9268 106.984C73.2139 107.014 73.5156 107.063 73.832 107.134L74.0518 105.543C73.8877 105.473 73.6416 105.417 73.3135 105.376C72.9912 105.335 72.6807 105.314 72.3818 105.314ZM81.1621 115.176C82.0879 115.176 82.8643 114.991 83.4912 114.622C84.124 114.247 84.5986 113.819 84.915 113.339L83.9219 112.565C83.623 112.952 83.248 113.263 82.7969 113.497C82.3457 113.731 81.8301 113.849 81.25 113.849C80.8105 113.849 80.4092 113.767 80.0459 113.603C79.6826 113.438 79.3721 113.213 79.1143 112.926C78.8623 112.656 78.6631 112.346 78.5166 111.994C78.376 111.643 78.2852 111.235 78.2441 110.772V110.711H85.0381V109.981C85.0381 109.319 84.9531 108.704 84.7832 108.136C84.6191 107.567 84.3672 107.072 84.0273 106.65C83.6875 106.234 83.2598 105.909 82.7441 105.675C82.2344 105.435 81.6367 105.314 80.9512 105.314C80.4062 105.314 79.873 105.426 79.3516 105.648C78.8359 105.871 78.376 106.19 77.9717 106.606C77.5615 107.028 77.2334 107.544 76.9873 108.153C76.7412 108.757 76.6182 109.442 76.6182 110.21V110.579C76.6182 111.241 76.7295 111.854 76.9521 112.416C77.1748 112.979 77.4854 113.465 77.8838 113.875C78.2822 114.285 78.7598 114.604 79.3164 114.833C79.8789 115.062 80.4941 115.176 81.1621 115.176ZM80.9512 106.65C81.3672 106.65 81.7246 106.727 82.0234 106.879C82.3281 107.031 82.5801 107.23 82.7793 107.477C82.9785 107.723 83.1338 108.016 83.2451 108.355C83.3564 108.689 83.4121 109.003 83.4121 109.296V109.375H78.2969C78.3613 108.936 78.4727 108.549 78.6309 108.215C78.7949 107.875 78.9941 107.588 79.2285 107.354C79.4629 107.125 79.7266 106.952 80.0195 106.835C80.3125 106.712 80.623 106.65 80.9512 106.65ZM91.6211 103.188H89.9863V105.49H87.4902V106.747H89.9863V111.915C89.9863 112.501 90.0625 113.002 90.2148 113.418C90.373 113.828 90.5869 114.162 90.8564 114.42C91.126 114.684 91.4424 114.877 91.8057 115C92.1748 115.117 92.5703 115.176 92.9922 115.176C93.2441 115.176 93.4961 115.164 93.748 115.141C94.0059 115.117 94.249 115.082 94.4775 115.035C94.7061 114.994 94.917 114.944 95.1104 114.886C95.3037 114.821 95.4678 114.748 95.6025 114.666L95.374 113.515C95.2744 113.538 95.1455 113.567 94.9873 113.603C94.835 113.632 94.6709 113.661 94.4951 113.69C94.3135 113.72 94.1289 113.746 93.9414 113.77C93.7539 113.787 93.5723 113.796 93.3965 113.796C93.1562 113.796 92.9277 113.767 92.7109 113.708C92.5 113.649 92.3125 113.547 92.1484 113.4C91.9844 113.26 91.8555 113.069 91.7617 112.829C91.668 112.589 91.6211 112.284 91.6211 111.915V106.747H95.2422V105.49H91.6211V103.188ZM104.849 115H106.325V105.49H104.69V112.311C104.603 112.516 104.491 112.706 104.356 112.882C104.228 113.052 104.075 113.198 103.899 113.321C103.688 113.474 103.439 113.594 103.152 113.682C102.865 113.764 102.54 113.805 102.177 113.805C101.866 113.805 101.591 113.764 101.351 113.682C101.116 113.6 100.917 113.456 100.753 113.251C100.589 113.052 100.466 112.782 100.384 112.442C100.302 112.103 100.261 111.675 100.261 111.159V105.49H98.6348V111.142C98.6348 111.851 98.7109 112.46 98.8633 112.97C99.0215 113.474 99.2441 113.89 99.5312 114.218C99.8184 114.546 100.164 114.789 100.568 114.947C100.973 115.1 101.424 115.176 101.922 115.176C102.543 115.176 103.091 115.047 103.565 114.789C104.04 114.525 104.436 114.159 104.752 113.69L104.849 115ZM115.624 105.314C114.933 105.314 114.314 105.467 113.77 105.771C113.23 106.07 112.768 106.48 112.381 107.002L112.372 106.765L112.302 105.49H110.755V115H112.39V108.9C112.495 108.607 112.627 108.344 112.785 108.109C112.949 107.869 113.14 107.667 113.356 107.503C113.597 107.315 113.878 107.175 114.2 107.081C114.522 106.981 114.883 106.932 115.281 106.932C115.592 106.932 115.888 106.949 116.169 106.984C116.456 107.014 116.758 107.063 117.074 107.134L117.294 105.543C117.13 105.473 116.884 105.417 116.556 105.376C116.233 105.335 115.923 105.314 115.624 105.314ZM120.203 115H121.829V108.18C121.94 107.975 122.069 107.787 122.216 107.617C122.368 107.447 122.532 107.298 122.708 107.169C122.925 107.022 123.162 106.908 123.42 106.826C123.678 106.738 123.956 106.694 124.255 106.694C124.601 106.694 124.905 106.735 125.169 106.817C125.438 106.899 125.667 107.031 125.854 107.213C126.036 107.395 126.174 107.632 126.268 107.925C126.361 108.218 126.408 108.575 126.408 108.997V115H128.034V108.962C128.034 108.329 127.955 107.784 127.797 107.327C127.645 106.864 127.425 106.483 127.138 106.185C126.851 105.886 126.502 105.666 126.092 105.525C125.688 105.385 125.236 105.314 124.738 105.314C124.369 105.32 124.018 105.376 123.684 105.481C123.355 105.581 123.051 105.725 122.77 105.912C122.582 106.035 122.403 106.182 122.233 106.352C122.069 106.516 121.917 106.697 121.776 106.896L121.662 105.49H120.203V115ZM111.019 135.905V130.5H109.393V144H111.019V137.092C111.136 136.904 111.268 136.734 111.414 136.582C111.566 136.424 111.73 136.286 111.906 136.169C112.129 136.017 112.372 135.899 112.636 135.817C112.899 135.735 113.178 135.694 113.471 135.694C113.828 135.688 114.145 135.738 114.42 135.844C114.695 135.943 114.924 136.096 115.105 136.301C115.275 136.488 115.404 136.726 115.492 137.013C115.58 137.294 115.624 137.622 115.624 137.997V144H117.25V138.015C117.25 137.376 117.171 136.825 117.013 136.362C116.86 135.894 116.641 135.507 116.354 135.202C116.066 134.897 115.718 134.675 115.308 134.534C114.903 134.388 114.452 134.314 113.954 134.314C113.573 134.32 113.213 134.376 112.873 134.481C112.539 134.587 112.231 134.742 111.95 134.947C111.774 135.07 111.607 135.214 111.449 135.378C111.291 135.536 111.147 135.712 111.019 135.905ZM125.477 144V131.203H125.345L120.502 133.066V134.552L123.851 133.277V144H125.477ZM283.987 135.905V130.5H282.361V144H283.987V137.092C284.104 136.904 284.236 136.734 284.383 136.582C284.535 136.424 284.699 136.286 284.875 136.169C285.098 136.017 285.341 135.899 285.604 135.817C285.868 135.735 286.146 135.694 286.439 135.694C286.797 135.688 287.113 135.738 287.389 135.844C287.664 135.943 287.893 136.096 288.074 136.301C288.244 136.488 288.373 136.726 288.461 137.013C288.549 137.294 288.593 137.622 288.593 137.997V144H290.219V138.015C290.219 137.376 290.14 136.825 289.981 136.362C289.829 135.894 289.609 135.507 289.322 135.202C289.035 134.897 288.687 134.675 288.276 134.534C287.872 134.388 287.421 134.314 286.923 134.314C286.542 134.32 286.182 134.376 285.842 134.481C285.508 134.587 285.2 134.742 284.919 134.947C284.743 135.07 284.576 135.214 284.418 135.378C284.26 135.536 284.116 135.712 283.987 135.905ZM298.445 144V131.203H298.313L293.471 133.066V134.552L296.819 133.277V144H298.445Z" fill="#E06C75"/>
<path d="M143.433 109.806V109.894C143.433 110.731 143.497 111.52 143.626 112.258C143.761 112.996 143.939 113.679 144.162 114.306C144.379 114.938 144.631 115.513 144.918 116.028C145.211 116.55 145.519 117.013 145.841 117.417C146.157 117.827 146.477 118.173 146.799 118.454C147.127 118.741 147.438 118.967 147.73 119.131L148.073 118.138C147.833 117.944 147.593 117.71 147.353 117.435C147.118 117.165 146.89 116.854 146.667 116.503C146.45 116.134 146.242 115.715 146.043 115.246C145.844 114.783 145.668 114.279 145.516 113.734C145.375 113.195 145.264 112.606 145.182 111.968C145.1 111.329 145.059 110.644 145.059 109.911V109.788C145.059 109.026 145.103 108.314 145.19 107.652C145.278 106.99 145.401 106.384 145.56 105.833C145.724 105.224 145.929 104.664 146.175 104.154C146.421 103.639 146.679 103.19 146.948 102.81C147.13 102.563 147.314 102.341 147.502 102.142C147.695 101.942 147.886 101.772 148.073 101.632L147.73 100.56C147.438 100.724 147.13 100.949 146.808 101.236C146.485 101.523 146.166 101.869 145.85 102.273C145.527 102.678 145.22 103.141 144.927 103.662C144.64 104.184 144.385 104.758 144.162 105.385C143.939 106.018 143.761 106.703 143.626 107.441C143.497 108.18 143.433 108.968 143.433 109.806ZM82.8936 167.894V167.806C82.8936 166.909 82.8232 166.104 82.6826 165.389C82.5479 164.668 82.375 164 82.1641 163.385C81.9473 162.746 81.6953 162.172 81.4082 161.662C81.1211 161.152 80.8135 160.689 80.4854 160.273C80.1689 159.869 79.8467 159.523 79.5186 159.236C79.1904 158.949 78.8799 158.724 78.5869 158.56L78.2441 159.553C78.4375 159.711 78.6367 159.904 78.8418 160.133C79.0469 160.355 79.2461 160.616 79.4395 160.915C79.6914 161.296 79.9375 161.744 80.1777 162.26C80.418 162.77 80.623 163.347 80.793 163.991C80.9102 164.442 81.0156 164.99 81.1094 165.635C81.209 166.279 81.2588 166.997 81.2588 167.788V167.911C81.2588 168.608 81.2207 169.265 81.1445 169.88C81.0742 170.489 80.9717 171.058 80.8369 171.585C80.708 172.153 80.541 172.675 80.3359 173.149C80.1367 173.63 79.9287 174.061 79.7119 174.441C79.4834 174.816 79.2432 175.147 78.9912 175.435C78.7393 175.722 78.4902 175.956 78.2441 176.138L78.5869 177.131C78.8799 176.967 79.1875 176.741 79.5098 176.454C79.8379 176.173 80.1631 175.827 80.4854 175.417C80.8018 175.013 81.1035 174.55 81.3906 174.028C81.6836 173.513 81.9414 172.938 82.1641 172.306C82.3867 171.679 82.5625 170.996 82.6914 170.258C82.8262 169.52 82.8936 168.731 82.8936 167.894Z" fill="#D670D6"/>
</g>
<defs>
<filter id="filter0_d_465_217" x="15" y="18" width="377" height="242" filterUnits="userSpaceOnUse" color-interpolation-filters="sRGB">
<feFlood flood-opacity="0" result="BackgroundImageFix"/>
<feColorMatrix in="SourceAlpha" type="matrix" values="0 0 0 0 0 0 0 0 0 0 0 0 0 0 0 0 0 0 127 0" result="hardAlpha"/>
<feMorphology radius="11" operator="erode" in="SourceAlpha" result="effect1_dropShadow_465_217"/>
<feOffset dy="21"/>
<feGaussianBlur stdDeviation="8.5"/>
<feComposite in2="hardAlpha" operator="out"/>
<feColorMatrix type="matrix" values="0 0 0 0 0 0 0 0 0 0 0 0 0 0 0 0 0 0 0.36 0"/>
<feBlend mode="normal" in2="BackgroundImageFix" result="effect1_dropShadow_465_217"/>
<feBlend mode="normal" in="SourceGraphic" in2="effect1_dropShadow_465_217" result="shape"/>
</filter>
<linearGradient id="paint0_linear_465_217" x1="15.6538" y1="16" x2="389.222" y2="234.095" gradientUnits="userSpaceOnUse">
<stop stop-color="#F6C76E"/>
<stop offset="1" stop-color="#FCB93E"/>
</linearGradient>
<clipPath id="clip0_465_217">
<rect width="407" height="255" rx="5" fill="white"/>
</clipPath>
</defs>
</svg>
